<svg width="1400" height="900" viewBox="0 0 1400 900" fill="none" xmlns="http://www.w3.org/2000/svg">
  <rect width="1400" height="900" fill="#04100B"/>
  <rect width="1400" height="900" fill="url(#grid)" opacity="0.35"/>
  <circle cx="704" cy="416" r="225" fill="url(#glow)"/>
  <circle cx="704" cy="416" r="143" stroke="#58FFA5" stroke-opacity="0.4"/>
  <circle cx="704" cy="416" r="221" stroke="#58FFA5" stroke-opacity="0.28"/>
  <path d="M566 359L704 268L844 359V520L704 600L566 520V359Z" stroke="#58FFA5" stroke-width="2" stroke-opacity="0.7"/>
  <path d="M566 359L704 434L844 359" stroke="#58FFA5" stroke-opacity="0.55"/>
  <path d="M704 268V434M566 520L704 434L844 520" stroke="#58FFA5" stroke-opacity="0.5"/>
  <path d="M358 643L598 524" stroke="#87E85C" stroke-opacity="0.25" stroke-width="8"/>
  <path d="M819 365L1126 279" stroke="#87E85C" stroke-opacity="0.22" stroke-width="8"/>
  <path d="M825 540L1169 667" stroke="#87E85C" stroke-opacity="0.16" stroke-width="8"/>
  <rect x="198" y="220" width="292" height="138" rx="34" fill="#07150F" stroke="#234233"/>
  <rect x="909" y="228" width="222" height="186" rx="46" fill="#07150F" stroke="#234233"/>
  <rect x="871" y="620" width="112" height="92" rx="18" fill="#0B170C" stroke="#1E3A22"/>
  <text x="997" y="640" fill="#61D386" fill-opacity="0.34" font-size="32" font-family="Arial">IRN</text>
  <text x="1097" y="729" fill="#61D386" fill-opacity="0.26" font-size="32" font-family="Arial">CN</text>
  <text x="238" y="704" fill="#A5F3C6" fill-opacity="0.38" font-size="40" font-family="Arial">APT</text>
  <defs>
    <radialGradient id="glow" cx="0" cy="0" r="1" gradientUnits="userSpaceOnUse" gradientTransform="translate(704 416) rotate(90) scale(225)">
      <stop stop-color="#0E6E4C" stop-opacity="0.7"/>
      <stop offset="1" stop-color="#0E6E4C" stop-opacity="0"/>
    </radialGradient>
    <pattern id="grid" width="40" height="40" patternUnits="userSpaceOnUse">
      <path d="M40 0H0V40" stroke="#58FFA5" stroke-opacity="0.18"/>
    </pattern>
  </defs>
</svg>
